<svg xmlns="http://www.w3.org/2000/svg" viewBox="0 0 96 96">
  <defs>
    <linearGradient id="bg" x1="16" y1="10" x2="80" y2="88" gradientUnits="userSpaceOnUse">
      <stop offset="0" stop-color="#101827" />
      <stop offset="0.58" stop-color="#080d16" />
      <stop offset="1" stop-color="#05070c" />
    </linearGradient>
    <linearGradient id="letters" x1="20" y1="22" x2="79" y2="74" gradientUnits="userSpaceOnUse">
      <stop offset="0" stop-color="#bfdbfe" />
      <stop offset="0.45" stop-color="#60a5fa" />
      <stop offset="1" stop-color="#2563eb" />
    </linearGradient>
    <linearGradient id="border" x1="11" y1="8" x2="85" y2="88" gradientUnits="userSpaceOnUse">
      <stop offset="0" stop-color="#60a5fa" />
      <stop offset="0.55" stop-color="#1d4ed8" stop-opacity="0.75" />
      <stop offset="1" stop-color="#facc15" stop-opacity="0.5" />
    </linearGradient>
    <linearGradient id="accent" x1="22" y1="76" x2="78" y2="76" gradientUnits="userSpaceOnUse">
      <stop offset="0" stop-color="#2563eb" stop-opacity="0" />
      <stop offset="0.42" stop-color="#38bdf8" />
      <stop offset="1" stop-color="#facc15" />
    </linearGradient>
    <filter id="glow" x="-30%" y="-30%" width="160%" height="160%">
      <feGaussianBlur stdDeviation="2.4" result="blur" />
      <feColorMatrix in="blur" type="matrix" values="0 0 0 0 0.18 0 0 0 0 0.44 0 0 0 0 0.95 0 0 0 0.58 0" result="logoGlow" />
      <feMerge>
        <feMergeNode in="logoGlow" />
        <feMergeNode in="SourceGraphic" />
      </feMerge>
    </filter>
  </defs>
  <rect width="96" height="96" rx="24" fill="url(#bg)" />
  <rect x="1.5" y="1.5" width="93" height="93" rx="22.5" fill="none" stroke="url(#border)" stroke-opacity="0.62" stroke-width="3" />
  <path d="M18 70H77M20 26H66M75 24L25 75" stroke="#60a5fa" stroke-opacity="0.14" stroke-width="2" />
  <g filter="url(#glow)">
    <path d="M18 23H52V34H31V42H49V52H31V62H54V73H18V23Z" fill="url(#letters)" />
    <path d="M57 23H68L80 52V23H91V73H79L68 46V73H57V23Z" fill="url(#letters)" />
  </g>
  <path d="M22 78H78" stroke="url(#accent)" stroke-width="4" stroke-linecap="round" />
</svg>
