<svg xmlns="http://www.w3.org/2000/svg" viewBox="0 0 96 96">
  <defs>
    <linearGradient id="bg" x1="12" y1="8" x2="84" y2="90" gradientUnits="userSpaceOnUse">
      <stop offset="0" stop-color="#0e1b2e" />
      <stop offset="0.48" stop-color="#08111f" />
      <stop offset="1" stop-color="#1f1706" />
    </linearGradient>
    <linearGradient id="letters" x1="18" y1="18" x2="78" y2="78" gradientUnits="userSpaceOnUse">
      <stop offset="0" stop-color="#7dd3fc" />
      <stop offset="0.42" stop-color="#3b82f6" />
      <stop offset="0.64" stop-color="#facc15" />
      <stop offset="1" stop-color="#f59e0b" />
    </linearGradient>
    <linearGradient id="stroke" x1="14" y1="10" x2="82" y2="88" gradientUnits="userSpaceOnUse">
      <stop offset="0" stop-color="#60a5fa" />
      <stop offset="0.52" stop-color="#2563eb" />
      <stop offset="1" stop-color="#f59e0b" />
    </linearGradient>
    <filter id="glow" x="-35%" y="-35%" width="170%" height="170%">
      <feGaussianBlur stdDeviation="3.5" result="blur" />
      <feColorMatrix in="blur" type="matrix" values="0 0 0 0 0.24 0 0 0 0 0.55 0 0 0 0 1 0 0 0 0.72 0" result="blueGlow" />
      <feMerge>
        <feMergeNode in="blueGlow" />
        <feMergeNode in="SourceGraphic" />
      </feMerge>
    </filter>
  </defs>
  <rect width="96" height="96" rx="26" fill="url(#bg)" />
  <rect x="1.5" y="1.5" width="93" height="93" rx="24.5" fill="none" stroke="url(#stroke)" stroke-opacity="0.45" stroke-width="3" />
  <path d="M15 65H82M20 33H76M48 13V83M27 77L70 20" stroke="#60a5fa" stroke-opacity="0.18" stroke-width="2" />
  <path d="M16 72L36 58H60L80 72M31 42H65M38 42V54H58V42" fill="none" stroke="#facc15" stroke-opacity="0.16" stroke-width="2" />
  <g filter="url(#glow)">
    <path d="M19 24H49V34H31V42H47V52H31V62H51V72H19V24Z" fill="url(#letters)" />
    <path d="M55 24H66L78 52V24H88V72H77L65 44V72H55V24Z" fill="url(#letters)" />
  </g>
  <circle cx="20" cy="20" r="2.5" fill="#60a5fa" />
  <circle cx="78" cy="76" r="2.5" fill="#facc15" />
</svg>
